<?xml version="1.0" encoding="UTF-8" standalone="no"?>
<!DOCTYPE svg PUBLIC "-//W3C//DTD SVG 1.1//EN"
 "http://www.w3.org/Graphics/SVG/1.1/DTD/svg11.dtd">
<!-- Generated by graphviz version 2.43.0 (0)
 -->
<!-- Title: %3 Pages: 1 -->
<svg width="322pt" height="165pt"
 viewBox="0.00 0.00 322.00 165.00" xmlns="http://www.w3.org/2000/svg" xmlns:xlink="http://www.w3.org/1999/xlink">
<g id="graph0" class="graph" transform="scale(1 1) rotate(0) translate(4 161)">
<title>%3</title>
<polygon fill="white" stroke="transparent" points="-4,4 -4,-161 318,-161 318,4 -4,4"/>
<!-- 0 -->
<g id="node1" class="node">
<title>0</title>
<ellipse fill="green" stroke="black" cx="22" cy="-73" rx="18" ry="18"/>
<ellipse fill="none" stroke="black" cx="22" cy="-73" rx="22" ry="22"/>
<text text-anchor="middle" x="22" y="-69.3" font-family="Times,serif" font-size="14.00">0</text>
</g>
<!-- 1 -->
<g id="node2" class="node">
<title>1</title>
<ellipse fill="white" stroke="black" cx="112" cy="-102" rx="18" ry="18"/>
<ellipse fill="none" stroke="black" cx="112" cy="-102" rx="22" ry="22"/>
<text text-anchor="middle" x="112" y="-98.3" font-family="Times,serif" font-size="14.00">1</text>
</g>
<!-- 0&#45;&gt;1 -->
<g id="edge1" class="edge">
<title>0&#45;&gt;1</title>
<path fill="none" stroke="black" d="M43.41,-79.73C54.71,-83.45 68.95,-88.14 81.45,-92.26"/>
<polygon fill="black" stroke="black" points="80.41,-95.6 91,-95.41 82.6,-88.96 80.41,-95.6"/>
<text text-anchor="middle" x="67" y="-91.8" font-family="Times,serif" font-size="14.00">a</text>
</g>
<!-- 4 -->
<g id="node5" class="node">
<title>4</title>
<ellipse fill="white" stroke="black" cx="112" cy="-44" rx="18" ry="18"/>
<text text-anchor="middle" x="112" y="-40.3" font-family="Times,serif" font-size="14.00">4</text>
</g>
<!-- 0&#45;&gt;4 -->
<g id="edge2" class="edge">
<title>0&#45;&gt;4</title>
<path fill="none" stroke="black" d="M43.41,-66.27C55.87,-62.17 71.92,-56.88 85.25,-52.49"/>
<polygon fill="black" stroke="black" points="86.41,-55.79 94.81,-49.34 84.22,-49.14 86.41,-55.79"/>
<text text-anchor="middle" x="67" y="-62.8" font-family="Times,serif" font-size="14.00">b</text>
</g>
<!-- 1&#45;&gt;1 -->
<g id="edge3" class="edge">
<title>1&#45;&gt;1</title>
<path fill="none" stroke="black" d="M103.99,-122.58C102.89,-132.84 105.55,-142 112,-142 116.13,-142 118.71,-138.24 119.74,-132.84"/>
<polygon fill="black" stroke="black" points="123.24,-132.67 120.01,-122.58 116.25,-132.49 123.24,-132.67"/>
<text text-anchor="middle" x="112" y="-145.8" font-family="Times,serif" font-size="14.00">a</text>
</g>
<!-- 2 -->
<g id="node3" class="node">
<title>2</title>
<ellipse fill="white" stroke="black" cx="202" cy="-139" rx="18" ry="18"/>
<text text-anchor="middle" x="202" y="-135.3" font-family="Times,serif" font-size="14.00">2</text>
</g>
<!-- 1&#45;&gt;2 -->
<g id="edge4" class="edge">
<title>1&#45;&gt;2</title>
<path fill="none" stroke="black" d="M132.53,-110.21C145.24,-115.56 161.95,-122.58 175.68,-128.35"/>
<polygon fill="black" stroke="black" points="174.48,-131.64 185.05,-132.29 177.19,-125.19 174.48,-131.64"/>
<text text-anchor="middle" x="157" y="-124.8" font-family="Times,serif" font-size="14.00">a</text>
</g>
<!-- 3 -->
<g id="node4" class="node">
<title>3</title>
<ellipse fill="white" stroke="black" cx="292" cy="-121" rx="18" ry="18"/>
<ellipse fill="none" stroke="black" cx="292" cy="-121" rx="22" ry="22"/>
<text text-anchor="middle" x="292" y="-117.3" font-family="Times,serif" font-size="14.00">3</text>
</g>
<!-- 2&#45;&gt;3 -->
<g id="edge5" class="edge">
<title>2&#45;&gt;3</title>
<path fill="none" stroke="black" d="M220.42,-139.75C229.87,-139.79 241.69,-139.25 252,-137 255.47,-136.24 259.02,-135.2 262.5,-134"/>
<polygon fill="black" stroke="black" points="263.91,-137.21 271.99,-130.35 261.4,-130.68 263.91,-137.21"/>
<text text-anchor="middle" x="247" y="-141.8" font-family="Times,serif" font-size="14.00">b</text>
</g>
<!-- 3&#45;&gt;1 -->
<g id="edge6" class="edge">
<title>3&#45;&gt;1</title>
<path fill="none" stroke="black" d="M271.84,-112.14C258.69,-106.57 240.68,-99.9 224,-97 197.26,-92.35 166.38,-94.33 143.99,-97.05"/>
<polygon fill="black" stroke="black" points="143.49,-93.58 134.04,-98.37 144.41,-100.52 143.49,-93.58"/>
<text text-anchor="middle" x="202" y="-100.8" font-family="Times,serif" font-size="14.00">a</text>
</g>
<!-- 3&#45;&gt;2 -->
<g id="edge7" class="edge">
<title>3&#45;&gt;2</title>
<path fill="none" stroke="black" d="M270.24,-116.95C261.42,-115.94 251.09,-115.71 242,-118 236.64,-119.35 231.21,-121.6 226.18,-124.14"/>
<polygon fill="black" stroke="black" points="224.13,-121.27 217.11,-129.21 227.55,-127.38 224.13,-121.27"/>
<text text-anchor="middle" x="247" y="-121.8" font-family="Times,serif" font-size="14.00">a</text>
</g>
<!-- 5 -->
<g id="node6" class="node">
<title>5</title>
<ellipse fill="white" stroke="black" cx="202" cy="-22" rx="18" ry="18"/>
<ellipse fill="none" stroke="black" cx="202" cy="-22" rx="22" ry="22"/>
<text text-anchor="middle" x="202" y="-18.3" font-family="Times,serif" font-size="14.00">5</text>
</g>
<!-- 4&#45;&gt;5 -->
<g id="edge8" class="edge">
<title>4&#45;&gt;5</title>
<path fill="none" stroke="black" d="M129.55,-39.86C141.06,-36.99 156.73,-33.07 170.47,-29.63"/>
<polygon fill="black" stroke="black" points="171.64,-32.95 180.49,-27.13 169.94,-26.16 171.64,-32.95"/>
<text text-anchor="middle" x="157" y="-37.8" font-family="Times,serif" font-size="14.00">a</text>
</g>
<!-- 5&#45;&gt;4 -->
<g id="edge9" class="edge">
<title>5&#45;&gt;4</title>
<path fill="none" stroke="black" d="M181.08,-14.43C172.04,-12.08 161.3,-10.84 152,-14 145.15,-16.33 138.57,-20.4 132.83,-24.8"/>
<polygon fill="black" stroke="black" points="130.47,-22.21 125.07,-31.33 134.98,-27.57 130.47,-22.21"/>
<text text-anchor="middle" x="157" y="-17.8" font-family="Times,serif" font-size="14.00">b</text>
</g>
</g>
</svg>
