<?xml version="1.0" encoding="UTF-8" standalone="no"?>
<!DOCTYPE svg PUBLIC "-//W3C//DTD SVG 1.1//EN"
 "http://www.w3.org/Graphics/SVG/1.1/DTD/svg11.dtd">
<!-- Generated by graphviz version 2.43.0 (0)
 -->
<!-- Title: %3 Pages: 1 -->
<svg width="313pt" height="141pt"
 viewBox="0.00 0.00 313.00 141.34" xmlns="http://www.w3.org/2000/svg" xmlns:xlink="http://www.w3.org/1999/xlink">
<g id="graph0" class="graph" transform="scale(1 1) rotate(0) translate(4 137.34)">
<title>%3</title>
<polygon fill="white" stroke="transparent" points="-4,4 -4,-137.34 309,-137.34 309,4 -4,4"/>
<!-- 0 -->
<g id="node1" class="node">
<title>0</title>
<ellipse fill="green" stroke="black" cx="18" cy="-63.34" rx="18" ry="18"/>
<text text-anchor="middle" x="18" y="-59.64" font-family="Times,serif" font-size="14.00">0</text>
</g>
<!-- 1 -->
<g id="node2" class="node">
<title>1</title>
<ellipse fill="white" stroke="black" cx="104" cy="-94.34" rx="18" ry="18"/>
<ellipse fill="none" stroke="black" cx="104" cy="-94.34" rx="22" ry="22"/>
<text text-anchor="middle" x="104" y="-90.64" font-family="Times,serif" font-size="14.00">1</text>
</g>
<!-- 0&#45;&gt;1 -->
<g id="edge1" class="edge">
<title>0&#45;&gt;1</title>
<path fill="none" stroke="black" d="M35.2,-69.32C46.06,-73.33 60.69,-78.72 73.58,-83.48"/>
<polygon fill="black" stroke="black" points="72.41,-86.78 83,-86.96 74.83,-80.21 72.41,-86.78"/>
<text text-anchor="middle" x="59" y="-83.14" font-family="Times,serif" font-size="14.00">a</text>
</g>
<!-- 2 -->
<g id="node3" class="node">
<title>2</title>
<ellipse fill="white" stroke="black" cx="104" cy="-32.34" rx="18" ry="18"/>
<ellipse fill="none" stroke="black" cx="104" cy="-32.34" rx="22" ry="22"/>
<text text-anchor="middle" x="104" y="-28.64" font-family="Times,serif" font-size="14.00">2</text>
</g>
<!-- 0&#45;&gt;2 -->
<g id="edge2" class="edge">
<title>0&#45;&gt;2</title>
<path fill="none" stroke="black" d="M35.2,-57.36C46.06,-53.35 60.69,-47.95 73.58,-43.2"/>
<polygon fill="black" stroke="black" points="74.83,-46.47 83,-39.72 72.41,-39.9 74.83,-46.47"/>
<text text-anchor="middle" x="59" y="-53.14" font-family="Times,serif" font-size="14.00">b</text>
</g>
<!-- 3 -->
<g id="node4" class="node">
<title>3</title>
<ellipse fill="white" stroke="black" cx="193" cy="-49.34" rx="18" ry="18"/>
<ellipse fill="none" stroke="black" cx="193" cy="-49.34" rx="22" ry="22"/>
<text text-anchor="middle" x="193" y="-45.64" font-family="Times,serif" font-size="14.00">3</text>
</g>
<!-- 1&#45;&gt;3 -->
<g id="edge3" class="edge">
<title>1&#45;&gt;3</title>
<path fill="none" stroke="black" d="M123.88,-84.57C135.62,-78.5 150.93,-70.58 164.06,-63.79"/>
<polygon fill="black" stroke="black" points="165.88,-66.79 173.16,-59.08 162.67,-60.57 165.88,-66.79"/>
<text text-anchor="middle" x="148.5" y="-76.14" font-family="Times,serif" font-size="14.00">a</text>
</g>
<!-- 4 -->
<g id="node5" class="node">
<title>4</title>
<ellipse fill="white" stroke="black" cx="283" cy="-49.34" rx="18" ry="18"/>
<ellipse fill="none" stroke="black" cx="283" cy="-49.34" rx="22" ry="22"/>
<text text-anchor="middle" x="283" y="-45.64" font-family="Times,serif" font-size="14.00">4</text>
</g>
<!-- 1&#45;&gt;4 -->
<g id="edge4" class="edge">
<title>1&#45;&gt;4</title>
<path fill="none" stroke="black" d="M123.94,-103.65C146.4,-113.34 184.6,-125.53 215,-113.34 234.35,-105.58 251.27,-89.28 263.27,-75.08"/>
<polygon fill="black" stroke="black" points="266.2,-77.02 269.75,-67.03 260.75,-72.63 266.2,-77.02"/>
<text text-anchor="middle" x="193" y="-122.14" font-family="Times,serif" font-size="14.00">b</text>
</g>
<!-- 2&#45;&gt;3 -->
<g id="edge5" class="edge">
<title>2&#45;&gt;3</title>
<path fill="none" stroke="black" d="M126.06,-36.45C136.53,-38.5 149.4,-41.01 160.97,-43.28"/>
<polygon fill="black" stroke="black" points="160.65,-46.78 171.13,-45.26 161.99,-39.91 160.65,-46.78"/>
<text text-anchor="middle" x="148.5" y="-45.14" font-family="Times,serif" font-size="14.00">a</text>
</g>
<!-- 2&#45;&gt;4 -->
<g id="edge6" class="edge">
<title>2&#45;&gt;4</title>
<path fill="none" stroke="black" d="M123.43,-21.14C145.39,-9.26 183.12,6.55 215,-3.34 230.99,-8.3 246.54,-18.54 258.64,-28.1"/>
<polygon fill="black" stroke="black" points="256.48,-30.86 266.42,-34.54 260.94,-25.47 256.48,-30.86"/>
<text text-anchor="middle" x="193" y="-7.14" font-family="Times,serif" font-size="14.00">b</text>
</g>
<!-- 3&#45;&gt;3 -->
<g id="edge7" class="edge">
<title>3&#45;&gt;3</title>
<path fill="none" stroke="black" d="M184.99,-69.92C183.89,-80.18 186.55,-89.34 193,-89.34 197.13,-89.34 199.71,-85.58 200.74,-80.18"/>
<polygon fill="black" stroke="black" points="204.24,-80.01 201.01,-69.92 197.25,-79.82 204.24,-80.01"/>
<text text-anchor="middle" x="193" y="-93.14" font-family="Times,serif" font-size="14.00">a</text>
</g>
<!-- 3&#45;&gt;4 -->
<g id="edge8" class="edge">
<title>3&#45;&gt;4</title>
<path fill="none" stroke="black" d="M215.3,-49.34C225.9,-49.34 238.91,-49.34 250.61,-49.34"/>
<polygon fill="black" stroke="black" points="250.89,-52.84 260.89,-49.34 250.89,-45.84 250.89,-52.84"/>
<text text-anchor="middle" x="238" y="-53.14" font-family="Times,serif" font-size="14.00">b</text>
</g>
<!-- 4&#45;&gt;4 -->
<g id="edge9" class="edge">
<title>4&#45;&gt;4</title>
<path fill="none" stroke="black" d="M274.99,-69.92C273.89,-80.18 276.55,-89.34 283,-89.34 287.13,-89.34 289.71,-85.58 290.74,-80.18"/>
<polygon fill="black" stroke="black" points="294.24,-80.01 291.01,-69.92 287.25,-79.82 294.24,-80.01"/>
<text text-anchor="middle" x="283" y="-93.14" font-family="Times,serif" font-size="14.00">b</text>
</g>
</g>
</svg>
