<?xml version="1.0" encoding="UTF-8" standalone="no"?>
<!DOCTYPE svg PUBLIC "-//W3C//DTD SVG 1.1//EN"
 "http://www.w3.org/Graphics/SVG/1.1/DTD/svg11.dtd">
<!-- Generated by graphviz version 2.43.0 (0)
 -->
<!-- Title: %3 Pages: 1 -->
<svg width="493pt" height="347pt"
 viewBox="0.00 0.00 493.00 347.00" xmlns="http://www.w3.org/2000/svg" xmlns:xlink="http://www.w3.org/1999/xlink">
<g id="graph0" class="graph" transform="scale(1 1) rotate(0) translate(4 343)">
<title>%3</title>
<polygon fill="white" stroke="transparent" points="-4,4 -4,-343 489,-343 489,4 -4,4"/>
<!-- 0 -->
<g id="node1" class="node">
<title>0</title>
<ellipse fill="green" stroke="black" cx="18" cy="-142" rx="18" ry="18"/>
<text text-anchor="middle" x="18" y="-138.3" font-family="Times,serif" font-size="14.00">0</text>
</g>
<!-- 1 -->
<g id="node2" class="node">
<title>1</title>
<ellipse fill="white" stroke="black" cx="104" cy="-195" rx="18" ry="18"/>
<ellipse fill="none" stroke="black" cx="104" cy="-195" rx="22" ry="22"/>
<text text-anchor="middle" x="104" y="-191.3" font-family="Times,serif" font-size="14.00">1</text>
</g>
<!-- 0&#45;&gt;1 -->
<g id="edge1" class="edge">
<title>0&#45;&gt;1</title>
<path fill="none" stroke="black" d="M33.63,-151.23C45.35,-158.63 62.11,-169.2 76.22,-178.1"/>
<polygon fill="black" stroke="black" points="74.71,-181.29 85.03,-183.66 78.44,-175.37 74.71,-181.29"/>
<text text-anchor="middle" x="59" y="-173.8" font-family="Times,serif" font-size="14.00">a</text>
</g>
<!-- 2 -->
<g id="node3" class="node">
<title>2</title>
<ellipse fill="white" stroke="black" cx="104" cy="-89" rx="18" ry="18"/>
<ellipse fill="none" stroke="black" cx="104" cy="-89" rx="22" ry="22"/>
<text text-anchor="middle" x="104" y="-85.3" font-family="Times,serif" font-size="14.00">2</text>
</g>
<!-- 0&#45;&gt;2 -->
<g id="edge2" class="edge">
<title>0&#45;&gt;2</title>
<path fill="none" stroke="black" d="M33.63,-132.77C45.35,-125.37 62.11,-114.8 76.22,-105.9"/>
<polygon fill="black" stroke="black" points="78.44,-108.63 85.03,-100.34 74.71,-102.71 78.44,-108.63"/>
<text text-anchor="middle" x="59" y="-121.8" font-family="Times,serif" font-size="14.00">b</text>
</g>
<!-- 3 -->
<g id="node4" class="node">
<title>3</title>
<ellipse fill="white" stroke="black" cx="193" cy="-195" rx="18" ry="18"/>
<ellipse fill="none" stroke="black" cx="193" cy="-195" rx="22" ry="22"/>
<text text-anchor="middle" x="193" y="-191.3" font-family="Times,serif" font-size="14.00">3</text>
</g>
<!-- 1&#45;&gt;3 -->
<g id="edge3" class="edge">
<title>1&#45;&gt;3</title>
<path fill="none" stroke="black" d="M126.06,-195C136.46,-195 149.21,-195 160.71,-195"/>
<polygon fill="black" stroke="black" points="160.83,-198.5 170.83,-195 160.83,-191.5 160.83,-198.5"/>
<text text-anchor="middle" x="148.5" y="-198.8" font-family="Times,serif" font-size="14.00">a</text>
</g>
<!-- 4 -->
<g id="node5" class="node">
<title>4</title>
<ellipse fill="white" stroke="black" cx="283" cy="-106" rx="18" ry="18"/>
<ellipse fill="none" stroke="black" cx="283" cy="-106" rx="22" ry="22"/>
<text text-anchor="middle" x="283" y="-102.3" font-family="Times,serif" font-size="14.00">4</text>
</g>
<!-- 1&#45;&gt;4 -->
<g id="edge4" class="edge">
<title>1&#45;&gt;4</title>
<path fill="none" stroke="black" d="M121.65,-181.72C134.58,-171.82 153.25,-158.45 171,-149 197.26,-135.02 229.09,-123.17 251.91,-115.47"/>
<polygon fill="black" stroke="black" points="253.32,-118.69 261.72,-112.23 251.12,-112.04 253.32,-118.69"/>
<text text-anchor="middle" x="193" y="-152.8" font-family="Times,serif" font-size="14.00">b</text>
</g>
<!-- 5 -->
<g id="node6" class="node">
<title>5</title>
<ellipse fill="white" stroke="black" cx="373" cy="-157" rx="18" ry="18"/>
<ellipse fill="none" stroke="black" cx="373" cy="-157" rx="22" ry="22"/>
<text text-anchor="middle" x="373" y="-153.3" font-family="Times,serif" font-size="14.00">5</text>
</g>
<!-- 1&#45;&gt;5 -->
<g id="edge5" class="edge">
<title>1&#45;&gt;5</title>
<path fill="none" stroke="black" d="M117.23,-212.99C128.96,-228.48 148.22,-249.77 171,-259 205.18,-272.85 302.25,-271.29 333,-249 352.35,-234.98 362.16,-209.41 367.11,-188.79"/>
<polygon fill="black" stroke="black" points="370.57,-189.34 369.22,-178.83 363.72,-187.89 370.57,-189.34"/>
<text text-anchor="middle" x="238" y="-270.8" font-family="Times,serif" font-size="14.00">a</text>
</g>
<!-- 6 -->
<g id="node7" class="node">
<title>6</title>
<ellipse fill="white" stroke="black" cx="463" cy="-165" rx="18" ry="18"/>
<ellipse fill="none" stroke="black" cx="463" cy="-165" rx="22" ry="22"/>
<text text-anchor="middle" x="463" y="-161.3" font-family="Times,serif" font-size="14.00">6</text>
</g>
<!-- 1&#45;&gt;6 -->
<g id="edge6" class="edge">
<title>1&#45;&gt;6</title>
<path fill="none" stroke="black" d="M109.2,-216.59C117.73,-253.31 140.81,-324 192,-324 192,-324 192,-324 374,-324 431.37,-324 451.64,-243.78 458.57,-197.3"/>
<polygon fill="black" stroke="black" points="462.07,-197.49 459.95,-187.11 455.14,-196.54 462.07,-197.49"/>
<text text-anchor="middle" x="283" y="-327.8" font-family="Times,serif" font-size="14.00">b</text>
</g>
<!-- 2&#45;&gt;3 -->
<g id="edge7" class="edge">
<title>2&#45;&gt;3</title>
<path fill="none" stroke="black" d="M118.59,-105.56C132.87,-122.96 155.49,-150.52 171.85,-170.45"/>
<polygon fill="black" stroke="black" points="169.16,-172.69 178.21,-178.2 174.58,-168.25 169.16,-172.69"/>
<text text-anchor="middle" x="148.5" y="-148.8" font-family="Times,serif" font-size="14.00">a</text>
</g>
<!-- 2&#45;&gt;4 -->
<g id="edge8" class="edge">
<title>2&#45;&gt;4</title>
<path fill="none" stroke="black" d="M126,-91.02C156.87,-93.98 214.72,-99.54 250.64,-102.99"/>
<polygon fill="black" stroke="black" points="250.74,-106.51 261.03,-103.99 251.41,-99.55 250.74,-106.51"/>
<text text-anchor="middle" x="193" y="-102.8" font-family="Times,serif" font-size="14.00">b</text>
</g>
<!-- 2&#45;&gt;5 -->
<g id="edge9" class="edge">
<title>2&#45;&gt;5</title>
<path fill="none" stroke="black" d="M124.93,-81.44C162.31,-68.56 244.62,-46.36 305,-75 308.34,-76.59 333.99,-108.62 352.55,-132.17"/>
<polygon fill="black" stroke="black" points="349.85,-134.38 358.78,-140.08 355.35,-130.06 349.85,-134.38"/>
<text text-anchor="middle" x="238" y="-64.8" font-family="Times,serif" font-size="14.00">a</text>
</g>
<!-- 2&#45;&gt;6 -->
<g id="edge10" class="edge">
<title>2&#45;&gt;6</title>
<path fill="none" stroke="black" d="M113.82,-68.8C126.81,-42.55 153.75,0 192,0 192,0 192,0 374,0 433.61,0 452.98,-84.88 459.17,-132.88"/>
<polygon fill="black" stroke="black" points="455.72,-133.56 460.36,-143.09 462.68,-132.75 455.72,-133.56"/>
<text text-anchor="middle" x="283" y="-3.8" font-family="Times,serif" font-size="14.00">b</text>
</g>
<!-- 3&#45;&gt;3 -->
<g id="edge11" class="edge">
<title>3&#45;&gt;3</title>
<path fill="none" stroke="black" d="M184.99,-215.58C183.89,-225.84 186.55,-235 193,-235 197.13,-235 199.71,-231.24 200.74,-225.84"/>
<polygon fill="black" stroke="black" points="204.24,-225.67 201.01,-215.58 197.25,-225.49 204.24,-225.67"/>
<text text-anchor="middle" x="193" y="-238.8" font-family="Times,serif" font-size="14.00">a</text>
</g>
<!-- 3&#45;&gt;4 -->
<g id="edge12" class="edge">
<title>3&#45;&gt;4</title>
<path fill="none" stroke="black" d="M209.33,-179.5C223.21,-165.46 243.83,-144.6 259.57,-128.69"/>
<polygon fill="black" stroke="black" points="262.31,-130.9 266.85,-121.32 257.33,-125.98 262.31,-130.9"/>
<text text-anchor="middle" x="238" y="-156.8" font-family="Times,serif" font-size="14.00">b</text>
</g>
<!-- 3&#45;&gt;5 -->
<g id="edge13" class="edge">
<title>3&#45;&gt;5</title>
<path fill="none" stroke="black" d="M214.77,-190.57C245.98,-183.9 305.19,-171.26 341.37,-163.54"/>
<polygon fill="black" stroke="black" points="342.32,-166.92 351.37,-161.41 340.85,-160.07 342.32,-166.92"/>
<text text-anchor="middle" x="283" y="-183.8" font-family="Times,serif" font-size="14.00">a</text>
</g>
<!-- 3&#45;&gt;6 -->
<g id="edge14" class="edge">
<title>3&#45;&gt;6</title>
<path fill="none" stroke="black" d="M213.5,-203.38C250.18,-217.9 331.49,-244.05 395,-221 412.82,-214.53 429.22,-201.02 441.33,-188.89"/>
<polygon fill="black" stroke="black" points="443.92,-191.25 448.29,-181.59 438.86,-186.41 443.92,-191.25"/>
<text text-anchor="middle" x="328" y="-233.8" font-family="Times,serif" font-size="14.00">b</text>
</g>
<!-- 4&#45;&gt;4 -->
<g id="edge15" class="edge">
<title>4&#45;&gt;4</title>
<path fill="none" stroke="black" d="M274.99,-126.58C273.89,-136.84 276.55,-146 283,-146 287.13,-146 289.71,-142.24 290.74,-136.84"/>
<polygon fill="black" stroke="black" points="294.24,-136.67 291.01,-126.58 287.25,-136.49 294.24,-136.67"/>
<text text-anchor="middle" x="283" y="-149.8" font-family="Times,serif" font-size="14.00">b</text>
</g>
<!-- 4&#45;&gt;5 -->
<g id="edge16" class="edge">
<title>4&#45;&gt;5</title>
<path fill="none" stroke="black" d="M302.66,-116.82C314.88,-123.9 331.05,-133.27 344.7,-141.18"/>
<polygon fill="black" stroke="black" points="343.26,-144.39 353.67,-146.37 346.77,-138.33 343.26,-144.39"/>
<text text-anchor="middle" x="328" y="-136.8" font-family="Times,serif" font-size="14.00">a</text>
</g>
<!-- 4&#45;&gt;6 -->
<g id="edge17" class="edge">
<title>4&#45;&gt;6</title>
<path fill="none" stroke="black" d="M304.82,-103.18C327.72,-100.92 365.23,-99.74 395,-111 412.19,-117.5 428.34,-130.23 440.47,-141.7"/>
<polygon fill="black" stroke="black" points="438.26,-144.43 447.83,-148.97 443.18,-139.45 438.26,-144.43"/>
<text text-anchor="middle" x="373" y="-114.8" font-family="Times,serif" font-size="14.00">b</text>
</g>
<!-- 5&#45;&gt;5 -->
<g id="edge18" class="edge">
<title>5&#45;&gt;5</title>
<path fill="none" stroke="black" d="M364.99,-177.58C363.89,-187.84 366.55,-197 373,-197 377.13,-197 379.71,-193.24 380.74,-187.84"/>
<polygon fill="black" stroke="black" points="384.24,-187.67 381.01,-177.58 377.25,-187.49 384.24,-187.67"/>
<text text-anchor="middle" x="373" y="-200.8" font-family="Times,serif" font-size="14.00">a</text>
</g>
<!-- 5&#45;&gt;6 -->
<g id="edge19" class="edge">
<title>5&#45;&gt;6</title>
<path fill="none" stroke="black" d="M395.02,-159.95C400.84,-160.7 407.16,-161.45 413,-162 418.73,-162.54 424.84,-163.01 430.74,-163.4"/>
<polygon fill="black" stroke="black" points="430.8,-166.91 440.99,-164.02 431.22,-159.92 430.8,-166.91"/>
<text text-anchor="middle" x="418" y="-165.8" font-family="Times,serif" font-size="14.00">b</text>
</g>
<!-- 6&#45;&gt;5 -->
<g id="edge20" class="edge">
<title>6&#45;&gt;5</title>
<path fill="none" stroke="black" d="M444.58,-152.65C438.11,-148.76 430.52,-144.97 423,-143 416.22,-141.22 408.93,-141.88 402.11,-143.65"/>
<polygon fill="black" stroke="black" points="400.92,-140.36 392.56,-146.87 403.16,-146.99 400.92,-140.36"/>
<text text-anchor="middle" x="418" y="-146.8" font-family="Times,serif" font-size="14.00">a</text>
</g>
<!-- 6&#45;&gt;6 -->
<g id="edge21" class="edge">
<title>6&#45;&gt;6</title>
<path fill="none" stroke="black" d="M454.99,-185.58C453.89,-195.84 456.55,-205 463,-205 467.13,-205 469.71,-201.24 470.74,-195.84"/>
<polygon fill="black" stroke="black" points="474.24,-195.67 471.01,-185.58 467.25,-195.49 474.24,-195.67"/>
<text text-anchor="middle" x="463" y="-208.8" font-family="Times,serif" font-size="14.00">b</text>
</g>
</g>
</svg>
