<?xml version="1.0" encoding="UTF-8" standalone="no"?>
<!DOCTYPE svg PUBLIC "-//W3C//DTD SVG 1.1//EN"
 "http://www.w3.org/Graphics/SVG/1.1/DTD/svg11.dtd">
<!-- Generated by graphviz version 2.43.0 (0)
 -->
<!-- Title: %3 Pages: 1 -->
<svg width="525pt" height="344pt"
 viewBox="0.00 0.00 525.00 344.00" xmlns="http://www.w3.org/2000/svg" xmlns:xlink="http://www.w3.org/1999/xlink">
<g id="graph0" class="graph" transform="scale(1 1) rotate(0) translate(4 340)">
<title>%3</title>
<polygon fill="white" stroke="transparent" points="-4,4 -4,-340 521,-340 521,4 -4,4"/>
<g id="clust1" class="cluster">
<title>cluster_0</title>
<polygon fill="none" stroke="black" points="8,-147 8,-199 60,-199 60,-147 8,-147"/>
</g>
<g id="clust2" class="cluster">
<title>cluster_1</title>
<polygon fill="none" stroke="black" points="90,-56 90,-116 150,-116 150,-56 90,-56"/>
</g>
<g id="clust3" class="cluster">
<title>cluster_2</title>
<polygon fill="none" stroke="black" points="90,-202 90,-262 150,-262 150,-202 90,-202"/>
</g>
<g id="clust4" class="cluster">
<title>cluster_3</title>
<polygon fill="none" stroke="black" points="179,-111 179,-204 239,-204 239,-111 179,-111"/>
</g>
<g id="clust5" class="cluster">
<title>cluster_4</title>
<polygon fill="none" stroke="black" points="269,-101 269,-194 329,-194 329,-101 269,-101"/>
</g>
<g id="clust6" class="cluster">
<title>cluster_5</title>
<polygon fill="none" stroke="black" points="359,-159 359,-252 509,-252 509,-159 359,-159"/>
</g>
<!-- 0 -->
<g id="node1" class="node">
<title>0</title>
<ellipse fill="green" stroke="black" cx="34" cy="-173" rx="18" ry="18"/>
<text text-anchor="middle" x="34" y="-169.3" font-family="Times,serif" font-size="14.00">0</text>
</g>
<!-- 2 -->
<g id="node2" class="node">
<title>2</title>
<ellipse fill="white" stroke="black" cx="120" cy="-86" rx="18" ry="18"/>
<ellipse fill="none" stroke="black" cx="120" cy="-86" rx="22" ry="22"/>
<text text-anchor="middle" x="120" y="-82.3" font-family="Times,serif" font-size="14.00">2</text>
</g>
<!-- 0&#45;&gt;2 -->
<g id="edge2" class="edge">
<title>0&#45;&gt;2</title>
<path fill="none" stroke="black" d="M47.04,-160.54C59.98,-147.13 80.84,-125.52 96.78,-109.01"/>
<polygon fill="black" stroke="black" points="99.73,-111 104.15,-101.38 94.69,-106.14 99.73,-111"/>
<text text-anchor="middle" x="75" y="-137.8" font-family="Times,serif" font-size="14.00">b</text>
</g>
<!-- 1 -->
<g id="node3" class="node">
<title>1</title>
<ellipse fill="white" stroke="black" cx="120" cy="-232" rx="18" ry="18"/>
<ellipse fill="none" stroke="black" cx="120" cy="-232" rx="22" ry="22"/>
<text text-anchor="middle" x="120" y="-228.3" font-family="Times,serif" font-size="14.00">1</text>
</g>
<!-- 0&#45;&gt;1 -->
<g id="edge1" class="edge">
<title>0&#45;&gt;1</title>
<path fill="none" stroke="black" d="M49.25,-183.01C61.19,-191.39 78.54,-203.58 92.95,-213.71"/>
<polygon fill="black" stroke="black" points="91.28,-216.8 101.47,-219.69 95.3,-211.08 91.28,-216.8"/>
<text text-anchor="middle" x="75" y="-207.8" font-family="Times,serif" font-size="14.00">a</text>
</g>
<!-- 3 -->
<g id="node4" class="node">
<title>3</title>
<ellipse fill="white" stroke="black" cx="209" cy="-141" rx="18" ry="18"/>
<ellipse fill="none" stroke="black" cx="209" cy="-141" rx="22" ry="22"/>
<text text-anchor="middle" x="209" y="-137.3" font-family="Times,serif" font-size="14.00">3</text>
</g>
<!-- 2&#45;&gt;3 -->
<g id="edge7" class="edge">
<title>2&#45;&gt;3</title>
<path fill="none" stroke="black" d="M139.03,-97.4C151.27,-105.14 167.68,-115.51 181.42,-124.2"/>
<polygon fill="black" stroke="black" points="179.67,-127.23 190,-129.62 183.41,-121.32 179.67,-127.23"/>
<text text-anchor="middle" x="164.5" y="-118.8" font-family="Times,serif" font-size="14.00">a</text>
</g>
<!-- 4 -->
<g id="node5" class="node">
<title>4</title>
<ellipse fill="white" stroke="black" cx="299" cy="-131" rx="18" ry="18"/>
<ellipse fill="none" stroke="black" cx="299" cy="-131" rx="22" ry="22"/>
<text text-anchor="middle" x="299" y="-127.3" font-family="Times,serif" font-size="14.00">4</text>
</g>
<!-- 2&#45;&gt;4 -->
<g id="edge8" class="edge">
<title>2&#45;&gt;4</title>
<path fill="none" stroke="black" d="M142.07,-83.79C166.16,-82.01 206.46,-81.31 239,-92 251.27,-96.03 263.42,-103.33 273.47,-110.54"/>
<polygon fill="black" stroke="black" points="271.63,-113.53 281.72,-116.76 275.84,-107.94 271.63,-113.53"/>
<text text-anchor="middle" x="209" y="-95.8" font-family="Times,serif" font-size="14.00">b</text>
</g>
<!-- 5 -->
<g id="node6" class="node">
<title>5</title>
<ellipse fill="white" stroke="black" cx="389" cy="-189" rx="18" ry="18"/>
<ellipse fill="none" stroke="black" cx="389" cy="-189" rx="22" ry="22"/>
<text text-anchor="middle" x="389" y="-185.3" font-family="Times,serif" font-size="14.00">5</text>
</g>
<!-- 2&#45;&gt;5 -->
<g id="edge9" class="edge">
<title>2&#45;&gt;5</title>
<path fill="none" stroke="black" d="M141.36,-79.85C182.32,-68.85 275.31,-51.01 329,-97 353.16,-117.7 340.34,-136.23 359,-162 360.52,-164.1 362.22,-166.16 364.01,-168.15"/>
<polygon fill="black" stroke="black" points="361.69,-170.79 371.21,-175.43 366.66,-165.86 361.69,-170.79"/>
<text text-anchor="middle" x="254" y="-71.8" font-family="Times,serif" font-size="14.00">a</text>
</g>
<!-- 6 -->
<g id="node7" class="node">
<title>6</title>
<ellipse fill="white" stroke="black" cx="479" cy="-189" rx="18" ry="18"/>
<ellipse fill="none" stroke="black" cx="479" cy="-189" rx="22" ry="22"/>
<text text-anchor="middle" x="479" y="-185.3" font-family="Times,serif" font-size="14.00">6</text>
</g>
<!-- 2&#45;&gt;6 -->
<g id="edge10" class="edge">
<title>2&#45;&gt;6</title>
<path fill="none" stroke="black" d="M130.23,-66.05C143.52,-40.65 170.62,0 208,0 208,0 208,0 390,0 458.37,0 473.76,-102.91 477.12,-156.86"/>
<polygon fill="black" stroke="black" points="473.63,-157.14 477.65,-166.95 480.62,-156.78 473.63,-157.14"/>
<text text-anchor="middle" x="299" y="-3.8" font-family="Times,serif" font-size="14.00">b</text>
</g>
<!-- 1&#45;&gt;3 -->
<g id="edge3" class="edge">
<title>1&#45;&gt;3</title>
<path fill="none" stroke="black" d="M135.76,-216.56C149.51,-202.18 170.19,-180.55 185.9,-164.11"/>
<polygon fill="black" stroke="black" points="188.79,-166.16 193.17,-156.51 183.73,-161.32 188.79,-166.16"/>
<text text-anchor="middle" x="164.5" y="-192.8" font-family="Times,serif" font-size="14.00">a</text>
</g>
<!-- 1&#45;&gt;4 -->
<g id="edge4" class="edge">
<title>1&#45;&gt;4</title>
<path fill="none" stroke="black" d="M142.24,-232.06C167.21,-231.19 209.04,-226.73 239,-208 257.92,-196.17 273.05,-175.97 283.26,-159.22"/>
<polygon fill="black" stroke="black" points="286.41,-160.76 288.41,-150.35 280.36,-157.24 286.41,-160.76"/>
<text text-anchor="middle" x="209" y="-231.8" font-family="Times,serif" font-size="14.00">b</text>
</g>
<!-- 1&#45;&gt;5 -->
<g id="edge5" class="edge">
<title>1&#45;&gt;5</title>
<path fill="none" stroke="black" d="M141.09,-238.78C147.12,-240.65 153.79,-242.56 160,-244 194.23,-251.93 204.16,-251.57 239,-247 289.48,-240.38 303.94,-238.7 349,-215 353.36,-212.71 357.84,-210.04 362.14,-207.31"/>
<polygon fill="black" stroke="black" points="364.2,-210.14 370.62,-201.71 360.34,-204.3 364.2,-210.14"/>
<text text-anchor="middle" x="254" y="-248.8" font-family="Times,serif" font-size="14.00">a</text>
</g>
<!-- 1&#45;&gt;6 -->
<g id="edge6" class="edge">
<title>1&#45;&gt;6</title>
<path fill="none" stroke="black" d="M129.82,-252.2C142.81,-278.45 169.75,-321 208,-321 208,-321 208,-321 390,-321 438.16,-321 461.59,-259.41 471.6,-220.37"/>
<polygon fill="black" stroke="black" points="475.04,-221.04 473.97,-210.5 468.23,-219.41 475.04,-221.04"/>
<text text-anchor="middle" x="299" y="-324.8" font-family="Times,serif" font-size="14.00">b</text>
</g>
<!-- 3&#45;&gt;3 -->
<g id="edge11" class="edge">
<title>3&#45;&gt;3</title>
<path fill="none" stroke="black" d="M200.99,-161.58C199.89,-171.84 202.55,-181 209,-181 213.13,-181 215.71,-177.24 216.74,-171.84"/>
<polygon fill="black" stroke="black" points="220.24,-171.67 217.01,-161.58 213.25,-171.49 220.24,-171.67"/>
<text text-anchor="middle" x="209" y="-184.8" font-family="Times,serif" font-size="14.00">a</text>
</g>
<!-- 3&#45;&gt;4 -->
<g id="edge12" class="edge">
<title>3&#45;&gt;4</title>
<path fill="none" stroke="black" d="M231.3,-138.58C241.9,-137.38 254.91,-135.9 266.61,-134.57"/>
<polygon fill="black" stroke="black" points="267.35,-138.01 276.89,-133.4 266.56,-131.05 267.35,-138.01"/>
<text text-anchor="middle" x="254" y="-139.8" font-family="Times,serif" font-size="14.00">b</text>
</g>
<!-- 3&#45;&gt;5 -->
<g id="edge13" class="edge">
<title>3&#45;&gt;5</title>
<path fill="none" stroke="black" d="M222.21,-158.66C232.79,-172.28 249.46,-190.1 269,-198 297.57,-209.55 333.12,-204.64 357.89,-198.5"/>
<polygon fill="black" stroke="black" points="359.04,-201.81 367.79,-195.83 357.22,-195.05 359.04,-201.81"/>
<text text-anchor="middle" x="299" y="-207.8" font-family="Times,serif" font-size="14.00">a</text>
</g>
<!-- 3&#45;&gt;6 -->
<g id="edge14" class="edge">
<title>3&#45;&gt;6</title>
<path fill="none" stroke="black" d="M224.91,-125.55C235.97,-115.26 252.02,-102.63 269,-97 294.31,-88.6 302.77,-92.21 329,-97 381.83,-106.65 398.25,-112.02 439,-147 445.26,-152.38 451.57,-158.68 457.22,-164.74"/>
<polygon fill="black" stroke="black" points="454.68,-167.15 463.99,-172.21 459.86,-162.45 454.68,-167.15"/>
<text text-anchor="middle" x="344" y="-103.8" font-family="Times,serif" font-size="14.00">b</text>
</g>
<!-- 4&#45;&gt;4 -->
<g id="edge15" class="edge">
<title>4&#45;&gt;4</title>
<path fill="none" stroke="black" d="M290.99,-151.58C289.89,-161.84 292.55,-171 299,-171 303.13,-171 305.71,-167.24 306.74,-161.84"/>
<polygon fill="black" stroke="black" points="310.24,-161.67 307.01,-151.58 303.25,-161.49 310.24,-161.67"/>
<text text-anchor="middle" x="299" y="-174.8" font-family="Times,serif" font-size="14.00">b</text>
</g>
<!-- 4&#45;&gt;5 -->
<g id="edge16" class="edge">
<title>4&#45;&gt;5</title>
<path fill="none" stroke="black" d="M317.81,-142.74C330.45,-151.07 347.63,-162.39 361.83,-171.75"/>
<polygon fill="black" stroke="black" points="359.94,-174.7 370.22,-177.28 363.79,-168.85 359.94,-174.7"/>
<text text-anchor="middle" x="344" y="-164.8" font-family="Times,serif" font-size="14.00">a</text>
</g>
<!-- 4&#45;&gt;6 -->
<g id="edge17" class="edge">
<title>4&#45;&gt;6</title>
<path fill="none" stroke="black" d="M321.15,-130.26C344.02,-130.14 381.19,-131.96 411,-143 426.59,-148.77 442.02,-158.97 454.14,-168.31"/>
<polygon fill="black" stroke="black" points="451.96,-171.05 461.96,-174.56 456.33,-165.58 451.96,-171.05"/>
<text text-anchor="middle" x="389" y="-146.8" font-family="Times,serif" font-size="14.00">b</text>
</g>
<!-- 5&#45;&gt;5 -->
<g id="edge18" class="edge">
<title>5&#45;&gt;5</title>
<path fill="none" stroke="black" d="M380.99,-209.58C379.89,-219.84 382.55,-229 389,-229 393.13,-229 395.71,-225.24 396.74,-219.84"/>
<polygon fill="black" stroke="black" points="400.24,-219.67 397.01,-209.58 393.25,-219.49 400.24,-219.67"/>
<text text-anchor="middle" x="389" y="-232.8" font-family="Times,serif" font-size="14.00">a</text>
</g>
<!-- 5&#45;&gt;6 -->
<g id="edge19" class="edge">
<title>5&#45;&gt;6</title>
<path fill="none" stroke="black" d="M411.05,-188.36C416.86,-188.21 423.18,-188.07 429,-188 434.64,-187.93 440.64,-187.96 446.44,-188.05"/>
<polygon fill="black" stroke="black" points="446.47,-191.55 456.53,-188.25 446.61,-184.55 446.47,-191.55"/>
<text text-anchor="middle" x="434" y="-191.8" font-family="Times,serif" font-size="14.00">b</text>
</g>
<!-- 6&#45;&gt;5 -->
<g id="edge20" class="edge">
<title>6&#45;&gt;5</title>
<path fill="none" stroke="black" d="M458.52,-197.48C452.39,-199.74 445.52,-201.87 439,-203 432.36,-204.15 425.34,-203.38 418.75,-201.73"/>
<polygon fill="black" stroke="black" points="419.45,-198.28 408.86,-198.56 417.32,-204.95 419.45,-198.28"/>
<text text-anchor="middle" x="434" y="-206.8" font-family="Times,serif" font-size="14.00">a</text>
</g>
<!-- 6&#45;&gt;6 -->
<g id="edge21" class="edge">
<title>6&#45;&gt;6</title>
<path fill="none" stroke="black" d="M470.99,-209.58C469.89,-219.84 472.55,-229 479,-229 483.13,-229 485.71,-225.24 486.74,-219.84"/>
<polygon fill="black" stroke="black" points="490.24,-219.67 487.01,-209.58 483.25,-219.49 490.24,-219.67"/>
<text text-anchor="middle" x="479" y="-232.8" font-family="Times,serif" font-size="14.00">b</text>
</g>
</g>
</svg>
