<?xml version="1.0" encoding="UTF-8" standalone="no"?>
<!DOCTYPE svg PUBLIC "-//W3C//DTD SVG 1.1//EN"
 "http://www.w3.org/Graphics/SVG/1.1/DTD/svg11.dtd">
<!-- Generated by graphviz version 2.43.0 (0)
 -->
<!-- Title: %3 Pages: 1 -->
<svg width="231pt" height="124pt"
 viewBox="0.00 0.00 231.00 124.00" xmlns="http://www.w3.org/2000/svg" xmlns:xlink="http://www.w3.org/1999/xlink">
<g id="graph0" class="graph" transform="scale(1 1) rotate(0) translate(4 120)">
<title>%3</title>
<polygon fill="white" stroke="transparent" points="-4,4 -4,-120 227,-120 227,4 -4,4"/>
<!-- 0 -->
<g id="node1" class="node">
<title>0</title>
<ellipse fill="green" stroke="black" cx="22" cy="-22" rx="18" ry="18"/>
<ellipse fill="none" stroke="black" cx="22" cy="-22" rx="22" ry="22"/>
<text text-anchor="middle" x="22" y="-18.3" font-family="Times,serif" font-size="14.00">0</text>
</g>
<!-- 1 -->
<g id="node2" class="node">
<title>1</title>
<ellipse fill="white" stroke="black" cx="111" cy="-61" rx="18" ry="18"/>
<ellipse fill="none" stroke="black" cx="111" cy="-61" rx="22" ry="22"/>
<text text-anchor="middle" x="111" y="-57.3" font-family="Times,serif" font-size="14.00">1</text>
</g>
<!-- 0&#45;&gt;1 -->
<g id="edge1" class="edge">
<title>0&#45;&gt;1</title>
<path fill="none" stroke="black" d="M42.31,-30.66C53.8,-35.81 68.59,-42.44 81.41,-48.18"/>
<polygon fill="black" stroke="black" points="80.19,-51.47 90.75,-52.37 83.05,-45.08 80.19,-51.47"/>
<text text-anchor="middle" x="66.5" y="-45.8" font-family="Times,serif" font-size="14.00">a</text>
</g>
<!-- 2 -->
<g id="node3" class="node">
<title>2</title>
<ellipse fill="white" stroke="black" cx="201" cy="-39" rx="18" ry="18"/>
<ellipse fill="none" stroke="black" cx="201" cy="-39" rx="22" ry="22"/>
<text text-anchor="middle" x="201" y="-35.3" font-family="Times,serif" font-size="14.00">2</text>
</g>
<!-- 0&#45;&gt;2 -->
<g id="edge2" class="edge">
<title>0&#45;&gt;2</title>
<path fill="none" stroke="black" d="M43.84,-17.79C66.08,-13.96 102.27,-9.66 133,-15 145.9,-17.24 159.6,-21.74 171.23,-26.24"/>
<polygon fill="black" stroke="black" points="170.26,-29.62 180.84,-30.14 172.89,-23.14 170.26,-29.62"/>
<text text-anchor="middle" x="111" y="-18.8" font-family="Times,serif" font-size="14.00">b</text>
</g>
<!-- 1&#45;&gt;1 -->
<g id="edge3" class="edge">
<title>1&#45;&gt;1</title>
<path fill="none" stroke="black" d="M102.99,-81.58C101.89,-91.84 104.55,-101 111,-101 115.13,-101 117.71,-97.24 118.74,-91.84"/>
<polygon fill="black" stroke="black" points="122.24,-91.67 119.01,-81.58 115.25,-91.49 122.24,-91.67"/>
<text text-anchor="middle" x="111" y="-104.8" font-family="Times,serif" font-size="14.00">a</text>
</g>
<!-- 1&#45;&gt;2 -->
<g id="edge4" class="edge">
<title>1&#45;&gt;2</title>
<path fill="none" stroke="black" d="M133.22,-59.65C141.92,-58.77 152.04,-57.34 161,-55 164.43,-54.1 167.96,-52.97 171.43,-51.73"/>
<polygon fill="black" stroke="black" points="172.87,-54.92 180.91,-48.02 170.32,-48.4 172.87,-54.92"/>
<text text-anchor="middle" x="156" y="-60.8" font-family="Times,serif" font-size="14.00">b</text>
</g>
<!-- 2&#45;&gt;1 -->
<g id="edge5" class="edge">
<title>2&#45;&gt;1</title>
<path fill="none" stroke="black" d="M179.15,-34.61C170.31,-33.55 160,-33.36 151,-36 146.23,-37.4 141.5,-39.57 137.06,-42.07"/>
<polygon fill="black" stroke="black" points="135.02,-39.22 128.43,-47.51 138.76,-45.14 135.02,-39.22"/>
<text text-anchor="middle" x="156" y="-39.8" font-family="Times,serif" font-size="14.00">a</text>
</g>
<!-- 2&#45;&gt;2 -->
<g id="edge6" class="edge">
<title>2&#45;&gt;2</title>
<path fill="none" stroke="black" d="M192.99,-59.58C191.89,-69.84 194.55,-79 201,-79 205.13,-79 207.71,-75.24 208.74,-69.84"/>
<polygon fill="black" stroke="black" points="212.24,-69.67 209.01,-59.58 205.25,-69.49 212.24,-69.67"/>
<text text-anchor="middle" x="201" y="-82.8" font-family="Times,serif" font-size="14.00">b</text>
</g>
</g>
</svg>
