<?xml version="1.0" encoding="UTF-8" standalone="no"?>
<!DOCTYPE svg PUBLIC "-//W3C//DTD SVG 1.1//EN"
 "http://www.w3.org/Graphics/SVG/1.1/DTD/svg11.dtd">
<!-- Generated by graphviz version 2.43.0 (0)
 -->
<!-- Title: %3 Pages: 1 -->
<svg width="215pt" height="87pt"
 viewBox="0.00 0.00 215.00 87.00" xmlns="http://www.w3.org/2000/svg" xmlns:xlink="http://www.w3.org/1999/xlink">
<g id="graph0" class="graph" transform="scale(1 1) rotate(0) translate(4 83)">
<title>%3</title>
<polygon fill="white" stroke="transparent" points="-4,4 -4,-83 211,-83 211,4 -4,4"/>
<!-- 1 -->
<g id="node1" class="node">
<title>1</title>
<ellipse fill="none" stroke="black" cx="18" cy="-18" rx="18" ry="18"/>
<text text-anchor="middle" x="18" y="-14.3" font-family="Times,serif" font-size="14.00">1</text>
</g>
<!-- 2 -->
<g id="node2" class="node">
<title>2</title>
<ellipse fill="none" stroke="black" cx="103" cy="-57" rx="18" ry="18"/>
<ellipse fill="none" stroke="black" cx="103" cy="-57" rx="22" ry="22"/>
<text text-anchor="middle" x="103" y="-53.3" font-family="Times,serif" font-size="14.00">2</text>
</g>
<!-- 1&#45;&gt;2 -->
<g id="edge1" class="edge">
<title>1&#45;&gt;2</title>
<path fill="none" stroke="black" d="M34.61,-25.34C45.57,-30.48 60.54,-37.52 73.58,-43.65"/>
<polygon fill="black" stroke="black" points="72.12,-46.83 82.66,-47.91 75.1,-40.49 72.12,-46.83"/>
<text text-anchor="middle" x="58.5" y="-41.8" font-family="Times,serif" font-size="14.00">a</text>
</g>
<!-- 3 -->
<g id="node3" class="node">
<title>3</title>
<ellipse fill="none" stroke="black" cx="189" cy="-18" rx="18" ry="18"/>
<text text-anchor="middle" x="189" y="-14.3" font-family="Times,serif" font-size="14.00">3</text>
</g>
<!-- 1&#45;&gt;3 -->
<g id="edge2" class="edge">
<title>1&#45;&gt;3</title>
<path fill="none" stroke="black" d="M36.06,-15.55C48.49,-13.89 65.75,-11.86 81,-11 100.52,-9.9 105.47,-9.92 125,-11 136.82,-11.65 149.84,-13 160.96,-14.33"/>
<polygon fill="black" stroke="black" points="160.57,-17.81 170.93,-15.59 161.44,-10.86 160.57,-17.81"/>
<text text-anchor="middle" x="103" y="-14.8" font-family="Times,serif" font-size="14.00">c</text>
</g>
<!-- 2&#45;&gt;3 -->
<g id="edge3" class="edge">
<title>2&#45;&gt;3</title>
<path fill="none" stroke="black" d="M123.48,-47.95C135.3,-42.47 150.5,-35.41 163.17,-29.53"/>
<polygon fill="black" stroke="black" points="164.68,-32.69 172.27,-25.3 161.73,-26.34 164.68,-32.69"/>
<text text-anchor="middle" x="148" y="-41.8" font-family="Times,serif" font-size="14.00">b</text>
</g>
</g>
</svg>
